<svg width="21" height="22" viewBox="0 0 21 22" fill="none" xmlns="http://www.w3.org/2000/svg">
<path d="M18 2.75H3C2.53125 2.78125 2.28125 3.03125 2.25 3.5V18.5C2.28125 18.9688 2.53125 19.2188 3 19.25H18C18.4688 19.2188 18.7188 18.9688 18.75 18.5V3.5C18.7188 3.03125 18.4688 2.78125 18 2.75ZM3 0.5H18C18.8438 0.53125 19.5469 0.828125 20.1094 1.39062C20.6719 1.95312 20.9688 2.65625 21 3.5V18.5C20.9688 19.3438 20.6719 20.0469 20.1094 20.6094C19.5469 21.1719 18.8438 21.4688 18 21.5H3C2.15625 21.4688 1.45312 21.1719 0.890625 20.6094C0.328125 20.0469 0.03125 19.3438 0 18.5V3.5C0.03125 2.65625 0.328125 1.95312 0.890625 1.39062C1.45312 0.828125 2.15625 0.53125 3 0.5Z" fill="#9C9C9C"/>
</svg>
