<svg width="18" height="21" viewBox="0 0 18 21" fill="none" xmlns="http://www.w3.org/2000/svg">
<path d="M6.91406 2.375C6.8099 2.375 6.73177 2.42708 6.67969 2.53125L5.9375 3.625H11.6016L10.8594 2.53125C10.7812 2.42708 10.6901 2.375 10.5859 2.375H6.91406ZM13.8281 3.625H14.375H16.25H16.5625C17.1354 3.67708 17.4479 3.98958 17.5 4.5625C17.4479 5.13542 17.1354 5.44792 16.5625 5.5H16.0938L15.1562 18.1953C15.1042 18.8464 14.8438 19.3932 14.375 19.8359C13.9062 20.2526 13.3464 20.474 12.6953 20.5H4.80469C4.15365 20.474 3.59375 20.2526 3.125 19.8359C2.65625 19.3932 2.39583 18.8464 2.34375 18.1953L1.40625 5.5H0.9375C0.364583 5.44792 0.0520833 5.13542 0 4.5625C0.0520833 3.98958 0.364583 3.67708 0.9375 3.625H1.25H3.125H3.67188L5.11719 1.47656C5.5599 0.851562 6.15885 0.526042 6.91406 0.5H10.5859C11.3411 0.526042 11.9531 0.851562 12.4219 1.47656L13.8281 3.625ZM14.2188 5.5H3.28125L4.17969 18.0391C4.25781 18.4036 4.46615 18.599 4.80469 18.625H12.6953C13.0339 18.599 13.2422 18.4036 13.3203 18.0391L14.2188 5.5Z" fill="#E20000"/>
</svg>
