<svg width="20" height="20" viewBox="0 0 20 20" fill="none" xmlns="http://www.w3.org/2000/svg">
<path d="M19.4375 10.125C19.4375 15.4766 15.0625 19.8125 9.75 19.8125C4.39844 19.8125 0.0625 15.4766 0.0625 10.125C0.0625 4.8125 4.39844 0.4375 9.75 0.4375C15.0625 0.4375 19.4375 4.8125 19.4375 10.125ZM8.61719 15.2812L15.8047 8.09375C16.0391 7.85938 16.0391 7.42969 15.8047 7.19531L14.9062 6.33594C14.6719 6.0625 14.2812 6.0625 14.0469 6.33594L8.1875 12.1953L5.41406 9.46094C5.17969 9.1875 4.78906 9.1875 4.55469 9.46094L3.65625 10.3203C3.42188 10.5547 3.42188 10.9844 3.65625 11.2188L7.71875 15.2812C7.95312 15.5156 8.38281 15.5156 8.61719 15.2812Z" fill="#00B600"/>
</svg>
