<svg width="82" height="81" viewBox="0 0 82 81" fill="none" xmlns="http://www.w3.org/2000/svg">
<path d="M41.515 80.293C34.2228 80.2426 27.5432 78.521 21.4764 75.1281C15.4088 71.6311 10.477 66.7715 6.68099 60.5493C3.09257 54.2214 1.27263 47.568 1.22118 40.589C1.16972 33.6101 2.89136 26.9305 6.38608 20.5504C10.0899 14.2729 14.9495 9.34113 20.9649 5.75502C26.9811 2.27307 33.6345 0.453134 40.9252 0.295212C48.2174 0.345617 54.897 2.06725 60.9638 5.46012C67.0314 8.95714 71.9632 13.8167 75.7592 20.0389C79.3476 26.3668 81.1675 33.0202 81.219 39.9992C81.2705 46.9782 79.5488 53.6577 76.0541 60.0378C72.3503 66.3153 67.4907 71.2471 61.4753 74.8332C55.4591 78.3152 48.8057 80.1351 41.515 80.293ZM58.8217 32.8204C60.267 31.0389 60.2539 29.2681 58.7826 27.508C57.001 26.0628 55.2302 26.0759 53.4702 27.5472L36.2548 45.0184L28.8571 37.729C27.0756 36.2837 25.3048 36.2968 23.5447 37.7681C22.0995 39.5497 22.1126 41.3204 23.5839 43.0805L33.6574 53.0065C35.4389 54.4517 37.2097 54.4387 38.9697 52.9673L58.8217 32.8204Z" fill="#00B600"/>
</svg>
