<svg width="21" height="22" viewBox="0 0 21 22" fill="none" xmlns="http://www.w3.org/2000/svg">
<path d="M3 0.5H18C18.8438 0.53125 19.5469 0.828125 20.1094 1.39062C20.6719 1.95312 20.9688 2.65625 21 3.5V18.5C20.9688 19.3438 20.6719 20.0469 20.1094 20.6094C19.5469 21.1719 18.8438 21.4688 18 21.5H3C2.15625 21.4688 1.45312 21.1719 0.890625 20.6094C0.328125 20.0469 0.03125 19.3438 0 18.5V3.5C0.03125 2.65625 0.328125 1.95312 0.890625 1.39062C1.45312 0.828125 2.15625 0.53125 3 0.5ZM15.7969 8.79688C16.2344 8.26562 16.2344 7.73438 15.7969 7.20312C15.2656 6.76563 14.7344 6.76563 14.2031 7.20312L9 12.4062L6.79688 10.2031C6.26562 9.76562 5.73438 9.76562 5.20312 10.2031C4.76562 10.7344 4.76562 11.2656 5.20312 11.7969L8.20312 14.7969C8.73438 15.2344 9.26562 15.2344 9.79688 14.7969L15.7969 8.79688Z" fill="#00B600"/>
</svg>
