<svg width="18" height="11" viewBox="0 0 18 11" fill="none" xmlns="http://www.w3.org/2000/svg">
<path d="M8.10156 10.3984L0.601562 2.89844C0.367188 2.63802 0.25 2.33854 0.25 2C0.25 1.66146 0.367188 1.36198 0.601562 1.10156C0.861979 0.867188 1.16146 0.75 1.5 0.75C1.83854 0.75 2.13802 0.867188 2.39844 1.10156L9 7.74219L15.6016 1.10156C15.862 0.867188 16.1615 0.75 16.5 0.75C16.8385 0.75 17.138 0.867188 17.3984 1.10156C17.6328 1.36198 17.75 1.66146 17.75 2C17.75 2.33854 17.6328 2.63802 17.3984 2.89844L9.89844 10.3984C9.63802 10.6328 9.33854 10.75 9 10.75C8.66146 10.75 8.36198 10.6328 8.10156 10.3984Z" fill="#006AFF"/>
</svg>
