<svg width="19" height="19" viewBox="0 0 19 19" fill="none" xmlns="http://www.w3.org/2000/svg">
<path d="M17.8672 2.99219L11.3594 9.5L17.8672 16.0078C18.3776 16.6276 18.3776 17.2474 17.8672 17.8672C17.2474 18.3776 16.6276 18.3776 16.0078 17.8672L9.5 11.3594L2.99219 17.8672C2.3724 18.3776 1.7526 18.3776 1.13281 17.8672C0.622396 17.2474 0.622396 16.6276 1.13281 16.0078L7.64062 9.5L1.13281 2.99219C0.622396 2.3724 0.622396 1.7526 1.13281 1.13281C1.7526 0.622396 2.3724 0.622396 2.99219 1.13281L9.5 7.64062L16.0078 1.13281C16.6276 0.622396 17.2474 0.622396 17.8672 1.13281C18.3776 1.7526 18.3776 2.3724 17.8672 2.99219Z" fill="white"/>
</svg>
