<svg width="24" height="24" viewBox="0 0 24 24" fill="none" xmlns="http://www.w3.org/2000/svg">
<path d="M12 24C9.8125 23.9688 7.8125 23.4375 6 22.4062C4.1875 21.3438 2.71875 19.875 1.59375 18C0.53125 16.0938 0 14.0938 0 12C0 9.90625 0.53125 7.90625 1.59375 6C2.71875 4.125 4.1875 2.65625 6 1.59375C7.8125 0.5625 9.8125 0.03125 12 0C14.1875 0.03125 16.1875 0.5625 18 1.59375C19.8125 2.65625 21.2812 4.125 22.4062 6C23.4688 7.90625 24 9.90625 24 12C24 14.0938 23.4688 16.0938 22.4062 18C21.2812 19.875 19.8125 21.3438 18 22.4062C16.1875 23.4375 14.1875 23.9688 12 24ZM10.875 16.125C10.9375 16.8125 11.3125 17.1875 12 17.25C12.6875 17.1875 13.0625 16.8125 13.125 16.125V13.125H16.125C16.8125 13.0625 17.1875 12.6875 17.25 12C17.1875 11.3125 16.8125 10.9375 16.125 10.875H13.125V7.875C13.0625 7.1875 12.6875 6.8125 12 6.75C11.3125 6.8125 10.9375 7.1875 10.875 7.875V10.875H7.875C7.1875 10.9375 6.8125 11.3125 6.75 12C6.8125 12.6875 7.1875 13.0625 7.875 13.125H10.875V16.125Z" fill="#006AFF"/>
</svg>
