<svg width="24" height="24" viewBox="0 0 24 24" fill="none" xmlns="http://www.w3.org/2000/svg">
<path d="M12 24C9.8125 23.9688 7.8125 23.4375 6 22.4062C4.1875 21.3438 2.71875 19.875 1.59375 18C0.53125 16.0938 0 14.0938 0 12C0 9.90625 0.53125 7.90625 1.59375 6C2.71875 4.125 4.1875 2.65625 6 1.59375C7.8125 0.5625 9.8125 0.03125 12 0C14.1875 0.03125 16.1875 0.5625 18 1.59375C19.8125 2.65625 21.2812 4.125 22.4062 6C23.4688 7.90625 24 9.90625 24 12C24 14.0938 23.4688 16.0938 22.4062 18C21.2812 19.875 19.8125 21.3438 18 22.4062C16.1875 23.4375 14.1875 23.9688 12 24ZM8.71875 6.42188C8.25 5.92187 7.73438 5.875 7.17188 6.28125C6.67188 6.75 6.625 7.28125 7.03125 7.875L10.5469 12L7.03125 16.1719C6.625 16.7344 6.67188 17.25 7.17188 17.7188C7.73438 18.125 8.25 18.0938 8.71875 17.625L12 13.7344L15.2812 17.625C15.75 18.0938 16.2812 18.125 16.875 17.7188C17.3438 17.25 17.375 16.7344 16.9688 16.1719L13.4531 12L16.9688 7.875C17.375 7.28125 17.3438 6.75 16.875 6.28125C16.2812 5.875 15.75 5.92187 15.2812 6.42188L12 10.2656L8.71875 6.42188Z" fill="white"/>
</svg>
