<svg width="20" height="21" viewBox="0 0 20 21" fill="none" xmlns="http://www.w3.org/2000/svg">
<path d="M10 0C10.1823 0 10.3516 0.0390625 10.5078 0.117188L17.8906 3.24219C18.3333 3.42448 18.6849 3.71094 18.9453 4.10156C19.2318 4.49219 19.375 4.94792 19.375 5.46875C19.401 6.79688 19.1797 8.35938 18.7109 10.1562C18.2422 11.9531 17.3958 13.6979 16.1719 15.3906C14.974 17.1094 13.2552 18.5286 11.0156 19.6484C10.3385 19.9609 9.66146 19.9609 8.98438 19.6484C6.74479 18.5286 5.02604 17.1094 3.82812 15.3906C2.60417 13.6979 1.75781 11.9531 1.28906 10.1562C0.820312 8.35938 0.598958 6.79688 0.625 5.46875C0.625 4.94792 0.768229 4.49219 1.05469 4.10156C1.3151 3.71094 1.66667 3.42448 2.10938 3.24219L9.49219 0.117188C9.64844 0.0390625 9.81771 0 10 0Z" fill="white"/>
</svg>
