<svg width="22" height="22" viewBox="0 0 22 22" fill="none" xmlns="http://www.w3.org/2000/svg">
<path d="M21 1.74219L20.4922 4.67188C20.388 5.34896 20.1016 5.92188 19.6328 6.39062L11.5078 14.4766L7.52344 10.4922L15.6094 2.36719C16.0781 1.89844 16.651 1.61198 17.3281 1.50781L20.2578 1C20.4661 0.973958 20.6484 1.03906 20.8047 1.19531C20.9609 1.35156 21.026 1.53385 21 1.74219ZM4.32031 9.94531C4.60677 9.6849 4.89323 9.6849 5.17969 9.94531L12.0547 16.8203C12.3151 17.1068 12.3151 17.3932 12.0547 17.6797L11.4297 18.3047C11.1953 18.5391 10.9349 18.5651 10.6484 18.3828L7.5625 16.3125C7.40625 16.2344 7.26302 16.2474 7.13281 16.3516L5.60938 17.9141C5.53125 17.9922 5.50521 18.0964 5.53125 18.2266L5.96094 19.5547C6.03906 19.7891 5.98698 19.9974 5.80469 20.1797L5.17969 20.8047C4.89323 21.0651 4.60677 21.0651 4.32031 20.8047L1.19531 17.6797C0.934896 17.3932 0.934896 17.1068 1.19531 16.8203L1.82031 16.1953C2.0026 16.013 2.21094 15.9609 2.44531 16.0391L3.77344 16.4688C3.90365 16.4948 4.00781 16.4688 4.08594 16.3906L5.64844 14.8672C5.7526 14.737 5.76562 14.6068 5.6875 14.4766L3.61719 11.3516C3.46094 11.0651 3.48698 10.8047 3.69531 10.5703L4.32031 9.94531Z" fill="white"/>
</svg>
