<svg width="25" height="24" viewBox="0 0 25 24" fill="none" xmlns="http://www.w3.org/2000/svg">
<path d="M17.4062 10.0312L18.7656 10.2188C18.9219 10.7812 19 11.375 19 12C18.9375 13.9062 18.2812 15.5 17.0312 16.7812C15.75 18.0312 14.1562 18.6875 12.25 18.75C10.3438 18.6875 8.75 18.0312 7.46875 16.7812C6.21875 15.5 5.5625 13.9062 5.5 12C5.5625 10.0938 6.21875 8.5 7.46875 7.21875C8.75 5.96875 10.3438 5.3125 12.25 5.25C12.875 5.25 13.4688 5.32812 14.0312 5.48438L14.2656 6.84375L12.7656 8.29688C12.6094 8.26562 12.4375 8.25 12.25 8.25C11.1875 8.28125 10.2969 8.64062 9.57812 9.32812C8.89062 10.0469 8.53125 10.9375 8.5 12C8.53125 13.0625 8.89062 13.9531 9.57812 14.6719C10.2969 15.3594 11.1875 15.7188 12.25 15.75C13.3125 15.7188 14.2031 15.3594 14.9219 14.6719C15.6094 13.9531 15.9688 13.0625 16 12C16 11.8125 15.9844 11.6406 15.9531 11.4844L17.4062 10.0312ZM21.25 12C21.25 11.5 21.2031 11 21.1094 10.5L21.5781 10.0781L23.5938 8.0625C24.0312 9.28125 24.25 10.5938 24.25 12C24.2188 14.25 23.6719 16.2656 22.6094 18.0469C21.5469 19.8594 20.1094 21.2969 18.2969 22.3594C16.5156 23.4219 14.5 23.9688 12.25 24C10 23.9688 7.98438 23.4219 6.20312 22.3594C4.39062 21.2969 2.95312 19.8594 1.89062 18.0469C0.828125 16.2656 0.28125 14.25 0.25 12C0.28125 9.75 0.828125 7.73438 1.89062 5.95312C2.95312 4.14062 4.39062 2.70313 6.20312 1.64062C7.98438 0.578125 10 0.03125 12.25 0C13.6562 0 14.9844 0.21875 16.2344 0.65625L14.1719 2.67188L13.75 3.14062C13.25 3.04688 12.75 3 12.25 3C9.6875 3.0625 7.5625 3.9375 5.875 5.625C4.1875 7.3125 3.3125 9.4375 3.25 12C3.3125 14.5625 4.1875 16.6875 5.875 18.375C7.5625 20.0625 9.6875 20.9375 12.25 21C14.8125 20.9375 16.9375 20.0625 18.625 18.375C20.3125 16.6875 21.1875 14.5625 21.25 12ZM20.6875 8.8125L20.5 9L17.3594 8.48438L12.6719 13.1719L11.0781 11.5781L15.7656 6.89062L15.25 3.75L15.4375 3.5625L17.6875 1.3125L19 0L20.2188 3L20.5 3.75L21.25 4.03125L24.25 5.25L22.9375 6.5625L20.6875 8.8125Z" fill="#006AFF"/>
</svg>
