<svg width="81" height="81" viewBox="0 0 81 81" fill="none" xmlns="http://www.w3.org/2000/svg">
<path d="M40.5147 80.2927C33.2224 80.2423 26.5429 78.5207 20.476 75.1278C14.4084 71.6308 9.47663 66.7712 5.68065 60.549C2.09224 54.2211 0.272301 47.5677 0.220846 40.5887C0.169392 33.6098 1.89103 26.9302 5.38575 20.5501C9.08957 14.2726 13.9492 9.34084 19.9646 5.75473C25.9807 2.27278 32.6342 0.452844 39.9249 0.294922C47.2171 0.345327 53.8966 2.06696 59.9635 5.45983C66.0311 8.95685 70.9629 13.8165 74.7589 20.0386C78.3473 26.3665 80.1672 33.02 80.2187 39.9989C80.2701 46.9779 78.5485 53.6575 75.0538 60.0376C71.35 66.315 66.4903 71.2468 60.475 74.8329C54.4588 78.3149 47.8054 80.1348 40.5147 80.2927ZM57.8214 32.8201C59.2666 31.0386 59.2536 29.2678 57.7822 27.5078C56.0007 26.0625 54.2299 26.0756 52.4699 27.5469L35.2545 45.0181L27.8568 37.7287C26.0752 36.2834 24.3044 36.2965 22.5444 37.7678C21.0992 39.5494 21.1122 41.3202 22.5836 43.0802L32.657 53.0062C34.4386 54.4514 36.2093 54.4384 37.9694 52.967L57.8214 32.8201Z" fill="url(#paint0_linear_1038_11882)"/>
<defs>
<linearGradient id="paint0_linear_1038_11882" x1="40.2198" y1="0.294922" x2="40.2198" y2="80.2927" gradientUnits="userSpaceOnUse">
<stop stop-color="#0095FF"/>
<stop offset="1" stop-color="#006AFF"/>
</linearGradient>
</defs>
</svg>
