<svg width="21" height="21" viewBox="0 0 21 21" fill="none" xmlns="http://www.w3.org/2000/svg">
<path d="M10.75 20.125C8.92708 20.099 7.26042 19.6562 5.75 18.7969C4.23958 17.9115 3.01562 16.6875 2.07812 15.125C1.19271 13.5365 0.75 11.8698 0.75 10.125C0.75 8.38021 1.19271 6.71354 2.07812 5.125C3.01562 3.5625 4.23958 2.33854 5.75 1.45312C7.26042 0.59375 8.92708 0.151042 10.75 0.125C12.5729 0.151042 14.2396 0.59375 15.75 1.45312C17.2604 2.33854 18.4844 3.5625 19.4219 5.125C20.3073 6.71354 20.75 8.38021 20.75 10.125C20.75 11.8698 20.3073 13.5365 19.4219 15.125C18.4844 16.6875 17.2604 17.9115 15.75 18.7969C14.2396 19.6562 12.5729 20.099 10.75 20.125ZM8.01562 5.47656C7.625 5.0599 7.19531 5.02083 6.72656 5.35938C6.3099 5.75 6.27083 6.19271 6.60938 6.6875L9.53906 10.125L6.60938 13.6016C6.27083 14.0703 6.3099 14.5 6.72656 14.8906C7.19531 15.2292 7.625 15.2031 8.01562 14.8125L10.75 11.5703L13.4844 14.8125C13.875 15.2031 14.3177 15.2292 14.8125 14.8906C15.2031 14.5 15.2292 14.0703 14.8906 13.6016L11.9609 10.125L14.8906 6.6875C15.2292 6.19271 15.2031 5.75 14.8125 5.35938C14.3177 5.02083 13.875 5.0599 13.4844 5.47656L10.75 8.67969L8.01562 5.47656Z" fill="#E20000"/>
</svg>
